<svg xmlns="http://www.w3.org/2000/svg" width="50.413" height="41" viewBox="0 0 50.413 41">
  <g id="dumper_1_" data-name="dumper (1)" transform="translate(0 -47.6)">
    <path id="Path_4162" data-name="Path 4162" d="M316,48,308.4,55.589a1.47,1.47,0,0,0,1.055,2.531h15.187a1.517,1.517,0,0,0,1.055-2.531L318.106,48A1.6,1.6,0,0,0,316,48Z" transform="translate(-277.501)" fill="#ff7058"/>
    <path id="Path_4163" data-name="Path 4163" d="M32.4,150.924V133.733H18.061l-6.328,11.5v5.7Z" transform="translate(-10.573 -77.616)" fill="#40596b"/>
    <path id="Path_4164" data-name="Path 4164" d="M62.027,172.788v-8.121H52.535L48,172.788Z" transform="translate(-43.254 -105.492)" fill="#54c0eb"/>
    <path id="Path_4165" data-name="Path 4165" d="M59.4,302.267H11.733v7.594a2.116,2.116,0,0,0,2.109,2.109H57.295a2.116,2.116,0,0,0,2.109-2.109v-7.594Z" transform="translate(-10.573 -229.486)" fill="#cdd6e0"/>
    <path id="Path_4166" data-name="Path 4166" d="M59.4,302.267v7.383a2.341,2.341,0,0,1-2.32,2.32H14.053a2.341,2.341,0,0,1-2.32-2.32v-7.383Z" transform="translate(-10.573 -229.486)" fill="#f2f2f2"/>
    <path id="Path_4167" data-name="Path 4167" d="M59.4,302.267v7.383a2.341,2.341,0,0,1-2.32,2.32H14.053a2.341,2.341,0,0,1-2.32-2.32v-7.383Z" transform="translate(-10.573 -229.486)" fill="#40596b"/>
    <g id="Group_2447" data-name="Group 2447" transform="translate(0 78.476)">
      <path id="Path_4168" data-name="Path 4168" d="M7.488,364.73H1.9a1.89,1.89,0,0,1-1.9-1.9H0a1.89,1.89,0,0,1,1.9-1.9h5.59Z" transform="translate(0 -360.827)" fill="#cdd6e0"/>
      <path id="Path_4169" data-name="Path 4169" d="M432.573,363.768h-5.906v-3.9h5.906a1.891,1.891,0,0,1,1.9,1.9h0A1.916,1.916,0,0,1,432.573,363.768Z" transform="translate(-384.48 -359.866)" fill="#cdd6e0"/>
    </g>
    <path id="Path_4170" data-name="Path 4170" d="M51.126,326.282H35.2a7.963,7.963,0,1,1,15.926,0Z" transform="translate(-31.72 -243.903)" fill="#334a5e"/>
    <path id="Path_4171" data-name="Path 4171" d="M35.2,363.768h4.008v-3.9H36.149A8.523,8.523,0,0,0,35.2,363.768Z" transform="translate(-31.72 -281.39)" fill="#bdccdb"/>
    <path id="Path_4172" data-name="Path 4172" d="M317.793,326.282H301.867a8.012,8.012,0,0,1,8.016-8.016A8.13,8.13,0,0,1,317.793,326.282Z" transform="translate(-272.02 -243.903)" fill="#334a5e"/>
    <path id="Path_4173" data-name="Path 4173" d="M429.3,360.933h-2.637v3.9h3.586A7.919,7.919,0,0,0,429.3,360.933Z" transform="translate(-384.479 -282.352)" fill="#bdccdb"/>
    <circle id="Ellipse_197" data-name="Ellipse 197" cx="6.223" cy="6.223" r="6.223" transform="translate(5.273 76.156)" fill="#ff7058"/>
    <circle id="Ellipse_198" data-name="Ellipse 198" cx="2.637" cy="2.637" r="2.637" transform="translate(8.859 79.741)" fill="#f2f2f2"/>
    <circle id="Ellipse_199" data-name="Ellipse 199" cx="6.223" cy="6.223" r="6.223" transform="translate(31.535 76.156)" fill="#ff7058"/>
    <circle id="Ellipse_200" data-name="Ellipse 200" cx="2.637" cy="2.637" r="2.637" transform="translate(35.121 79.741)" fill="#f2f2f2"/>
    <g id="Group_2448" data-name="Group 2448" transform="translate(6.012 59.175)">
      <path id="Path_4174" data-name="Path 4174" d="M61.96,172.788l6.855-8.121H67.761L60.8,172.788Z" transform="translate(-60.8 -164.667)" fill="#84dbff"/>
      <path id="Path_4175" data-name="Path 4175" d="M90,172.788l6.855-8.121H94.322l-6.855,8.121Z" transform="translate(-84.83 -164.667)" fill="#84dbff"/>
    </g>
    <path id="Path_4176" data-name="Path 4176" d="M147.046,269.294H143.46a.5.5,0,0,1-.527-.527v-.105a.5.5,0,0,1,.527-.527h3.586a.5.5,0,0,1,.527.527v.105A.565.565,0,0,1,147.046,269.294Z" transform="translate(-128.8 -198.728)" fill="#cdd6e0"/>
    <path id="Path_4177" data-name="Path 4177" d="M170.418,89.635v-3.9H157.867V89h6.117v18.14h28.687V89.635Z" transform="translate(-142.258 -34.362)" fill="#ffd15c"/>
    <g id="Group_2449" data-name="Group 2449" transform="translate(25.312 58.753)">
      <rect id="Rectangle_1500" data-name="Rectangle 1500" width="3.586" height="10.547" transform="translate(0 0)" fill="#f8b64c"/>
      <rect id="Rectangle_1501" data-name="Rectangle 1501" width="3.586" height="10.547" transform="translate(9.281 0)" fill="#f8b64c"/>
      <rect id="Rectangle_1502" data-name="Rectangle 1502" width="3.586" height="10.547" transform="translate(18.562 0)" fill="#f8b64c"/>
    </g>
  </g>
</svg>
