<svg xmlns="http://www.w3.org/2000/svg" width="89.212" height="71.614" viewBox="0 0 89.212 71.614">
  <g id="breakdown" transform="translate(0)" opacity="0.35">
    <path id="Path_3798" data-name="Path 3798" d="M374.306,371.412a5.031,5.031,0,1,0,5.03,5.033A5.04,5.04,0,0,0,374.306,371.412Zm0,7.428a2.4,2.4,0,1,1,2.4-2.395A2.4,2.4,0,0,1,374.306,378.84Z" transform="translate(-304.928 -315.495)" fill="#fff"/>
    <path id="Path_3799" data-name="Path 3799" d="M107.819,371.412a5.031,5.031,0,1,0,5.035,5.033A5.037,5.037,0,0,0,107.819,371.412Zm0,7.428a2.4,2.4,0,1,1,2.4-2.395A2.4,2.4,0,0,1,107.819,378.84Z" transform="translate(-84.879 -315.495)" fill="#fff"/>
    <path id="Path_3800" data-name="Path 3800" d="M85.84,103.676V92.261c0-3.5-2.253-5.946-5.48-5.946H78.988c-1.1,0-1.486-.512-2.538-2.132-.154-.237-.315-.485-.488-.742l-5.09-7.56-.266-.4c-1.346-2.027-2.738-4.122-6.763-4.122H54.775v-5.44a4.069,4.069,0,0,0-4.062-4.066h0a4.069,4.069,0,0,0-4.062,4.066V77.066H40.777L30.526,66.872a1.317,1.317,0,1,0-1.857,1.867l8.373,8.326H35.676a5.909,5.909,0,0,0-3.183.927l-20.3-20.184h0l-.91-.9a2.628,2.628,0,0,1-.891-2.492,1.7,1.7,0,0,1,1.169-1.223,2.639,2.639,0,0,1,2.452.977L24.215,64.313a1.317,1.317,0,1,0,1.857-1.867L15.865,52.3a5.19,5.19,0,0,0-5-1.653,4.338,4.338,0,0,0-3.027,3.089A5.176,5.176,0,0,0,9.42,58.77l.521.518.008,9.582a4.707,4.707,0,0,0,0,9.043V83c0,1.57-1.611,1.615-1.794,1.615S6.361,84.567,6.361,83V80.88a1.317,1.317,0,0,0-2.634,0V83a4.208,4.208,0,0,0,4.428,4.248A4.208,4.208,0,0,0,12.583,83V77.912a4.707,4.707,0,0,0,0-9.043l-.006-6.961,18.06,17.954a5.9,5.9,0,0,0-.9,3.145V90.9H5.608A2.509,2.509,0,0,0,3.1,93.406v10.338a4.295,4.295,0,0,0,1.193,8.42h8a10.672,10.672,0,0,0,21.3,0h9.939a1.317,1.317,0,1,0,0-2.633H33.439a10.586,10.586,0,0,0-1.207-3.324H60.087a10.588,10.588,0,0,0-1.207,3.324H49.561a1.317,1.317,0,1,0,0,2.633H58.73a10.672,10.672,0,0,0,21.3,0h4.888a4.295,4.295,0,0,0,.927-8.489ZM13.348,73.393a2.081,2.081,0,1,1-2.081-2.079A2.08,2.08,0,0,1,13.348,73.393ZM83.207,98.007H79.324a.514.514,0,0,1-.51-.5V96.125a.514.514,0,0,1,.51-.5h3.883ZM63.843,73.994c2.612,0,3.307,1.046,4.569,2.946l.274.411,5.091,7.56c.164.244.317.48.465.707,1.112,1.713,2.163,3.33,4.747,3.33h1.373c2.1,0,2.846,1.711,2.846,3.313v.727H79.324a3.144,3.144,0,0,0-3.144,3.138V97.5a3.144,3.144,0,0,0,3.144,3.138h3.883v2.934H76.571a10.657,10.657,0,0,0-14.386,0H54.775V73.994ZM49.279,65.921a1.45,1.45,0,0,1,1.429-1.432h0a1.45,1.45,0,0,1,1.429,1.432V90.9H49.279V65.921ZM32.366,83.007a3.292,3.292,0,0,1,.925-2.287c.013-.013.028-.024.041-.037s.029-.032.043-.048a3.3,3.3,0,0,1,2.3-.936H46.645V90.9H32.366ZM31.049,93.533H52.142v10.041H30.134a10.657,10.657,0,0,0-14.386,0H5.735V93.533ZM2.634,107.872a1.665,1.665,0,0,1,1.661-1.664h9.355a10.589,10.589,0,0,0-1.207,3.324H4.294a1.662,1.662,0,0,1-1.661-1.66Zm20.307,11.609a8.034,8.034,0,1,1,8.041-8.031A8.045,8.045,0,0,1,22.941,119.481Zm46.438,0a8.034,8.034,0,1,1,8.041-8.031A8.045,8.045,0,0,1,69.378,119.481Zm15.535-9.95H79.877a10.586,10.586,0,0,0-1.207-3.324h6.244a1.662,1.662,0,1,1,0,3.324Z" transform="translate(0 -50.5)" fill="#fff"/>
    <path id="Path_3801" data-name="Path 3801" d="M331.947,214.248h8.639a1.6,1.6,0,0,0,1.6-1.573v-.35a2.478,2.478,0,0,0-.468-1.5l-4.176-5.917a3.183,3.183,0,0,0-2.836-1.431h-3.921a1.663,1.663,0,0,0-1.694,1.508c0,.029,0,.058,0,.087l.01,6.567A2.742,2.742,0,0,0,331.947,214.248Zm2.755-8.138c.458,0,.508.069.687.321l3.658,5.184h-7.1a.4.4,0,0,1-.219-.05l-.008-5.455H334.7Z" transform="translate(-271.744 -176.821)" fill="#fff"/>
  </g>
</svg>
