<svg xmlns="http://www.w3.org/2000/svg" width="45" height="45" viewBox="0 0 45 45">
  <g id="due" transform="translate(-132 -715)">
    <g id="due-2" data-name="due">
      <circle id="Ellipse_80" data-name="Ellipse 80" cx="22.5" cy="22.5" r="22.5" transform="translate(132 715)" fill="#efefef"/>
      <g id="shipping-and-delivery" transform="translate(136.444 723.959)">
        <g id="Group_2175" data-name="Group 2175" transform="translate(0)">
          <path id="Path_1719" data-name="Path 1719" d="M0,0H2.222V1.111H0Z" transform="translate(4.518 1.768) rotate(-45)" fill="#a4afc1"/>
          <path id="Path_1720" data-name="Path 1720" d="M0,0H2.222V1.111H0Z" transform="translate(0 6.285) rotate(-45)" fill="#a4afc1"/>
          <path id="Path_1721" data-name="Path 1721" d="M0,0H1.111V2.222H0Z" transform="translate(0 0.786) rotate(-45)" fill="#a4afc1"/>
          <path id="Path_1722" data-name="Path 1722" d="M28.167,9.76a1.667,1.667,0,1,1,1.667-1.667A1.669,1.669,0,0,1,28.167,9.76Zm0-2.222a.556.556,0,1,0,.556.556A.556.556,0,0,0,28.167,7.538Z" transform="translate(5.794 -5.607)" fill="#a4afc1"/>
        </g>
      </g>
      <g id="Group_2202" data-name="Group 2202" transform="translate(142.178 728.086)">
        <g id="calendar_2_" data-name="calendar (2)">
          <path id="Path_1804" data-name="Path 1804" d="M23.059,8.79H.75V21.144a1.982,1.982,0,0,0,1.983,1.983H21.076a1.982,1.982,0,0,0,1.983-1.983Z" transform="translate(-0.006 -0.075)" fill="#fff"/>
          <path id="Path_1805" data-name="Path 1805" d="M20.084,2.75H3.725A2.974,2.974,0,0,0,.75,5.725V8.739H23.059V5.725A2.974,2.974,0,0,0,20.084,2.75Z" transform="translate(-0.006 -0.023)" fill="#44ecff"/>
          <path id="Path_1810" data-name="Path 1810" d="M21.07,23.813H2.727A2.729,2.729,0,0,1,0,21.087V4.727A2.729,2.729,0,0,1,2.727,2H21.07A2.729,2.729,0,0,1,23.8,4.727v16.36A2.729,2.729,0,0,1,21.07,23.813ZM2.727,3.487A1.241,1.241,0,0,0,1.487,4.727v16.36a1.241,1.241,0,0,0,1.239,1.239H21.07a1.241,1.241,0,0,0,1.239-1.239V4.727A1.241,1.241,0,0,0,21.07,3.487Z" transform="translate(0 -0.017)"/>
          <path id="Path_1811" data-name="Path 1811" d="M23.053,9.487H.744A.744.744,0,1,1,.744,8H23.053a.744.744,0,1,1,0,1.487Z" transform="translate(0 -0.068)"/>
          <path id="Path_1812" data-name="Path 1812" d="M5.744,5.949A.744.744,0,0,1,5,5.205V.744a.744.744,0,0,1,1.487,0V5.205A.744.744,0,0,1,5.744,5.949Z" transform="translate(-0.042)"/>
          <path id="Path_1813" data-name="Path 1813" d="M18.244,5.949a.744.744,0,0,1-.744-.744V.744a.744.744,0,0,1,1.487,0V5.205A.744.744,0,0,1,18.244,5.949Z" transform="translate(-0.149)"/>
        </g>
        <g id="Group_2200" data-name="Group 2200" transform="translate(3.333 13.142)">
          <path id="Path_1833" data-name="Path 1833" d="M24.858,23.9a1.65,1.65,0,0,1,.723-1.365,1.652,1.652,0,1,0,0,2.731A1.65,1.65,0,0,1,24.858,23.9Z" transform="translate(-22.381 -21.631)" fill="#ff850c"/>
          <path id="Path_1834" data-name="Path 1834" d="M24.521,26.043a2.271,2.271,0,1,1,2.271-2.271A2.273,2.273,0,0,1,24.521,26.043Zm0-3.3a1.032,1.032,0,1,0,1.032,1.032A1.034,1.034,0,0,0,24.521,22.739Z" transform="translate(-22.25 -21.5)"/>
        </g>
        <g id="Group_2200-2" data-name="Group 2200" transform="translate(10 13.142)">
          <path id="Path_1833-2" data-name="Path 1833" d="M24.858,23.9a1.65,1.65,0,0,1,.723-1.365,1.652,1.652,0,1,0,0,2.731A1.65,1.65,0,0,1,24.858,23.9Z" transform="translate(-22.381 -21.631)" fill="#ff850c"/>
          <path id="Path_1834-2" data-name="Path 1834" d="M24.521,26.043a2.271,2.271,0,1,1,2.271-2.271A2.273,2.273,0,0,1,24.521,26.043Zm0-3.3a1.032,1.032,0,1,0,1.032,1.032A1.034,1.034,0,0,0,24.521,22.739Z" transform="translate(-22.25 -21.5)"/>
        </g>
        <g id="Group_2200-3" data-name="Group 2200" transform="translate(16.667 13.142)">
          <path id="Path_1833-3" data-name="Path 1833" d="M24.858,23.9a1.65,1.65,0,0,1,.723-1.365,1.652,1.652,0,1,0,0,2.731A1.65,1.65,0,0,1,24.858,23.9Z" transform="translate(-22.381 -21.631)" fill="#ff850c"/>
          <path id="Path_1834-3" data-name="Path 1834" d="M24.521,26.043a2.271,2.271,0,1,1,2.271-2.271A2.273,2.273,0,0,1,24.521,26.043Zm0-3.3a1.032,1.032,0,1,0,1.032,1.032A1.034,1.034,0,0,0,24.521,22.739Z" transform="translate(-22.25 -21.5)"/>
        </g>
      </g>
    </g>
  </g>
</svg>
