<svg xmlns="http://www.w3.org/2000/svg" width="116.539" height="147.692" viewBox="0 0 116.539 147.692">
  <g id="e_tp_details" transform="translate(-54)" opacity="0.8">
    <g id="XMLID_170_" transform="translate(54)">
      <path id="XMLID_384_" d="M170.872,144.2h5.355v1.416a2.885,2.885,0,0,0,5.769,0V144.2h22.758v1.416a2.885,2.885,0,1,0,5.769,0V144.2h5.355a2.885,2.885,0,0,0,2.885-2.885v-11.64a8.046,8.046,0,0,0-2.936-6.216l.743-.743a2.885,2.885,0,0,0-4.08-4.08l-.206.206L210.68,112.3a8.389,8.389,0,0,0-8.164-6.4H184.234a8.388,8.388,0,0,0-8.163,6.4l-1.605,6.536-.206-.206a2.885,2.885,0,0,0-4.08,4.08l.743.743a8.045,8.045,0,0,0-2.936,6.216v11.64A2.886,2.886,0,0,0,170.872,144.2Zm42.122-5.769H173.757v-8.756a2.292,2.292,0,0,1,2.289-2.289h34.662a2.292,2.292,0,0,1,2.286,2.289Zm-28.759-26.757h18.282a2.631,2.631,0,0,1,2.561,2.008l1.949,7.935h-27.3l1.949-7.935A2.63,2.63,0,0,1,184.235,111.671Z" transform="translate(-135.106 -75.353)" fill="#d4f3ff"/>
      <path id="XMLID_392_" d="M209.885,189.52a2.881,2.881,0,1,0,2.039.842A2.9,2.9,0,0,0,209.885,189.52Z" transform="translate(-162.865 -134.851)" fill="#d4f3ff"/>
      <path id="XMLID_393_" d="M287.885,189.52a2.886,2.886,0,1,0,2.039.845A2.894,2.894,0,0,0,287.885,189.52Z" transform="translate(-218.365 -134.851)" fill="#d4f3ff"/>
      <path id="XMLID_772_" d="M167.654,0H66.115A12.129,12.129,0,0,0,54,12.115V135.577a12.129,12.129,0,0,0,12.115,12.115H167.654a2.885,2.885,0,0,0,2.885-2.885V2.885A2.885,2.885,0,0,0,167.654,0ZM66.115,5.769h98.654V123.462H66.115a12.04,12.04,0,0,0-6.346,1.8V12.115A6.353,6.353,0,0,1,66.115,5.769Zm98.654,136.154H66.115a6.346,6.346,0,1,1,0-12.692h98.654Z" transform="translate(-54)" fill="#d4f3ff"/>
      <path id="XMLID_804_" d="M122.366,130.077h65.444a8.249,8.249,0,0,0,8.239-8.239v-51.6A8.249,8.249,0,0,0,187.811,62H149.26a2.885,2.885,0,0,0,0,5.769h38.551a2.473,2.473,0,0,1,2.47,2.47v51.6a2.473,2.473,0,0,1-2.47,2.47H122.366a2.473,2.473,0,0,1-2.47-2.47v-51.6a2.473,2.473,0,0,1,2.47-2.47h3.817a2.885,2.885,0,1,0,0-5.769h-3.817a8.249,8.249,0,0,0-8.239,8.239v51.6A8.249,8.249,0,0,0,122.366,130.077Z" transform="translate(-96.783 -44.115)" fill="#d4f3ff"/>
      <path id="XMLID_811_" d="M188.8,67.769a2.886,2.886,0,1,0-2.039-.845A2.907,2.907,0,0,0,188.8,67.769Z" transform="translate(-147.866 -44.115)" fill="#d4f3ff"/>
      <path id="XMLID_814_" d="M196.185,343.05H151.422a2.885,2.885,0,1,0,0,5.769h44.764a2.885,2.885,0,1,0,0-5.769Z" transform="translate(-121.267 -244.093)" fill="#d4f3ff"/>
      <path id="XMLID_870_" d="M346.6,343.05a2.886,2.886,0,1,0,2.039.845A2.9,2.9,0,0,0,346.6,343.05Z" transform="translate(-260.147 -244.093)" fill="#d4f3ff"/>
    </g>
  </g>
</svg>
