<svg xmlns="http://www.w3.org/2000/svg" width="84" height="84" viewBox="0 0 84 84">
  <g id="fuel_drop" opacity="0.3">
    <g id="Group_2339" data-name="Group 2339" transform="translate(20.672 20.18)">
      <g id="Group_2338" data-name="Group 2338">
        <path id="Path_4010" data-name="Path 4010" d="M127.641,123a1.641,1.641,0,1,0,1.641,1.641A1.641,1.641,0,0,0,127.641,123Z" transform="translate(-126 -123)" fill="#fff"/>
      </g>
    </g>
    <g id="Group_2341" data-name="Group 2341" transform="translate(28.875 42)">
      <g id="Group_2340" data-name="Group 2340">
        <path id="Path_4011" data-name="Path 4011" d="M188.249,264.206l-4.266-7.386a1.641,1.641,0,0,0-2.842,0l-4.267,7.388a6.563,6.563,0,1,0,11.374,0Zm-5.686,6.559a3.283,3.283,0,0,1-2.845-4.918l2.845-4.926,2.844,4.924a3.283,3.283,0,0,1-2.844,4.92Z" transform="translate(-176 -256)" fill="#fff"/>
      </g>
    </g>
    <g id="Group_2343" data-name="Group 2343" transform="translate(19.031 35.438)">
      <g id="Group_2342" data-name="Group 2342">
        <path id="Path_4012" data-name="Path 4012" d="M132.406,216a16.406,16.406,0,1,0,16.406,16.406A16.425,16.425,0,0,0,132.406,216Zm0,29.531a13.125,13.125,0,1,1,13.125-13.125A13.14,13.14,0,0,1,132.406,245.531Z" transform="translate(-116 -216)" fill="#fff"/>
      </g>
    </g>
    <g id="Group_2345" data-name="Group 2345" transform="translate(13.617 13.617)">
      <g id="Group_2344" data-name="Group 2344">
        <path id="Path_4013" data-name="Path 4013" d="M125,83H84.641A1.641,1.641,0,0,0,83,84.641V97.766a1.641,1.641,0,0,0,1.641,1.641H125a1.641,1.641,0,0,0,1.641-1.641V84.641A1.641,1.641,0,0,0,125,83Zm-1.641,13.125H86.281V86.281h37.078Z" transform="translate(-83 -83)" fill="#fff"/>
      </g>
    </g>
    <g id="Group_2347" data-name="Group 2347" transform="translate(27.234 20.18)">
      <g id="Group_2346" data-name="Group 2346">
        <path id="Path_4014" data-name="Path 4014" d="M187.328,123H167.641a1.641,1.641,0,0,0,0,3.281h19.688a1.641,1.641,0,0,0,0-3.281Z" transform="translate(-166 -123)" fill="#fff"/>
      </g>
    </g>
    <g id="Group_2349" data-name="Group 2349">
      <g id="Group_2348" data-name="Group 2348">
        <path id="Path_4015" data-name="Path 4015" d="M79.373,25.111l-8.5-2.833V18.539a4.927,4.927,0,0,0-4.922-4.922H64.312V9.844a4.922,4.922,0,0,0,0-9.844H6.563a4.922,4.922,0,0,0,0,9.844v63.82H4.922A4.927,4.927,0,0,0,0,78.586v3.773A1.641,1.641,0,0,0,1.641,84H69.234a1.641,1.641,0,0,0,1.641-1.641V78.586a4.927,4.927,0,0,0-4.922-4.922H64.312V46.922h4.922a1.642,1.642,0,0,1,1.641,1.641V60.047a6.562,6.562,0,1,0,13.125,0V30.023A4.918,4.918,0,0,0,79.373,25.111Zm-1.936,4.912h0a1.643,1.643,0,0,1,1.636-1.64h.011a1.64,1.64,0,0,1,1.635,1.64V40.359a1.641,1.641,0,0,1-3.281,0ZM65.953,16.9a1.642,1.642,0,0,1,1.641,1.641v9.844a1.642,1.642,0,0,1-1.641,1.641H64.312V16.9Zm0,60.047a1.642,1.642,0,0,1,1.641,1.641v2.133H3.281V78.586a1.642,1.642,0,0,1,1.641-1.641ZM9.844,73.664V9.844H61.031v63.82ZM6.563,6.563a1.641,1.641,0,0,1,0-3.281h57.75a1.641,1.641,0,0,1,0,3.281ZM80.719,60.047a3.281,3.281,0,0,1-6.563,0V48.563a4.927,4.927,0,0,0-4.922-4.922H64.312V33.3h1.641a4.927,4.927,0,0,0,4.922-4.922V25.737l4.216,1.405a4.9,4.9,0,0,0-.935,2.881V40.359A4.92,4.92,0,0,0,80.719,45Z" fill="#fff"/>
      </g>
    </g>
  </g>
</svg>
