<svg xmlns="http://www.w3.org/2000/svg" width="88.976" height="75.856" viewBox="0 0 88.976 75.856">
  <g id="overspeed" transform="translate(0 0)" opacity="0.3">
    <path id="Path_3805" data-name="Path 3805" d="M73.689,75.49a1.732,1.732,0,0,0,1.229-.509l.01-.009A1.738,1.738,0,0,0,72.5,72.487l-.037.037a1.738,1.738,0,0,0,1.231,2.965Zm0,0" transform="translate(-59.448 -59.485)" fill="#fff"/>
    <path id="Path_3806" data-name="Path 3806" d="M88.6,38.714A44.747,44.747,0,0,0,75.963,13.039a44.527,44.527,0,0,0-57.2-4.858,1.738,1.738,0,0,0,2.012,2.835q.841-.6,1.706-1.147L26.8,17.356a32.518,32.518,0,0,0-9.461,9.476L9.853,22.511a40.677,40.677,0,0,1,2.54-3.568,1.738,1.738,0,0,0-2.719-2.166,44.539,44.539,0,0,0-3.72,49.967A7.768,7.768,0,1,0,19.423,59,28.938,28.938,0,0,1,64.941,24.061a28.962,28.962,0,0,1,8.023,25.711L55.008,42.979a10.617,10.617,0,1,0-2.175,8.127L71.775,54.2A29.268,29.268,0,0,1,69.551,59a7.769,7.769,0,0,0,13.469,7.745A44.7,44.7,0,0,0,88.6,38.714ZM16.411,60.734a4.293,4.293,0,1,1-7.445,4.275A40.645,40.645,0,0,1,3.5,46.252h8.623a32.594,32.594,0,0,0,4.29,14.482ZM12.347,40.275c-.11.832-.185,1.666-.229,2.5H3.505q.079-1.8.316-3.609a41.209,41.209,0,0,1,4.3-13.644L15.6,29.843a32.307,32.307,0,0,0-3.254,10.432Zm27.085,9.3a7.155,7.155,0,1,1,11.522-8.129L46,39.571a4.63,4.63,0,0,0-3.791.246,5.325,5.325,0,0,0-2.043,7.626,4.632,4.632,0,0,0,3.159,2.109l5.229.854a7.166,7.166,0,0,1-9.119-.831ZM52.323,47.5l-.014,0-8.428-1.377a1.2,1.2,0,0,1-.8-.564,1.849,1.849,0,0,1,.709-2.647,1.342,1.342,0,0,1,.6-.156,1.047,1.047,0,0,1,.372.068l7.965,3.013.05.019,8.013,3.031Zm-6.1-35.341V3.516A40.755,40.755,0,0,1,63.491,8.123l-4.324,7.49a32.179,32.179,0,0,0-12.941-3.453ZM25.486,8.125A40.716,40.716,0,0,1,42.75,3.514v8.647a32.179,32.179,0,0,0-12.941,3.453Zm36.688,9.231L66.5,9.865A41.475,41.475,0,0,1,79.132,22.5l-7.5,4.329a32.523,32.523,0,0,0-9.462-9.477Zm11.2,12.486,7.5-4.328a41.057,41.057,0,0,1,4.283,13.653q.237,1.807.316,3.609H76.858q-.066-1.252-.229-2.5a32.292,32.292,0,0,0-3.255-10.432Zm6.634,35.169a4.292,4.292,0,0,1-7.445-4.274,32.217,32.217,0,0,0,2.675-5.97l2.118.346a1.738,1.738,0,0,0,.9-3.341l-2.012-.76a32.823,32.823,0,0,0,.615-4.76h8.622a40.638,40.638,0,0,1-5.469,18.759Zm0,0" transform="translate(0 -0.001)" fill="#fff"/>
    <path id="Path_3807" data-name="Path 3807" d="M208.586,354.5H187.73a1.738,1.738,0,0,0-1.738,1.738V361.8a1.738,1.738,0,0,0,1.738,1.738h20.856a1.738,1.738,0,0,0,1.738-1.738v-5.562A1.738,1.738,0,0,0,208.586,354.5Zm-1.738,5.562h-17.38v-2.086h17.38Zm0,0" transform="translate(-153.67 -292.892)" fill="#fff"/>
    <path id="Path_3808" data-name="Path 3808" d="M99.914,246.145a1.738,1.738,0,1,0,0,3.476h.041a1.738,1.738,0,0,0,0-3.476Zm0,0" transform="translate(-81.115 -203.37)" fill="#fff"/>
    <path id="Path_3809" data-name="Path 3809" d="M175.365,119.034l-.02-.036a1.738,1.738,0,1,0-3.01,1.739l.02.035a1.738,1.738,0,1,0,3.01-1.739Zm0,0" transform="translate(-142.194 -97.6)" fill="#fff"/>
    <path id="Path_3810" data-name="Path 3810" d="M321.543,121.658a1.737,1.737,0,0,0,1.506-.869l.02-.036a1.738,1.738,0,1,0-3.01-1.738l-.02.036a1.739,1.739,0,0,0,1.5,2.607Zm0,0" transform="translate(-264.231 -97.615)" fill="#fff"/>
    <path id="Path_3811" data-name="Path 3811" d="M395.365,249.652a1.738,1.738,0,0,0,0-3.476h-.041a1.738,1.738,0,1,0,0,3.476Zm0,0" transform="translate(-325.188 -203.396)" fill="#fff"/>
    <path id="Path_3812" data-name="Path 3812" d="M212.774,416.5h-.041a1.738,1.738,0,1,0,0,3.476h.041a1.738,1.738,0,1,0,0-3.476Zm0,0" transform="translate(-174.329 -344.124)" fill="#fff"/>
    <path id="Path_3813" data-name="Path 3813" d="M248.835,416.5H241.7a1.738,1.738,0,0,0,0,3.476h7.133a1.738,1.738,0,0,0,0-3.476Zm0,0" transform="translate(-198.264 -344.124)" fill="#fff"/>
  </g>
</svg>
