<svg xmlns="http://www.w3.org/2000/svg" width="45" height="45" viewBox="0 0 45 45">
  <g id="pending_complaints" transform="translate(-1161 -712)">
    <g id="Group_2176" data-name="Group 2176" transform="translate(1161 712)">
      <circle id="Ellipse_82" data-name="Ellipse 82" cx="22.5" cy="22.5" r="22.5" transform="translate(0)" fill="#efefef"/>
      <g id="Group_2175" data-name="Group 2175" transform="translate(3.25 8.614)">
        <path id="Path_1719" data-name="Path 1719" d="M0,0H2.5V1.25H0Z" transform="translate(5.082 1.989) rotate(-45)" fill="#a4afc1"/>
        <path id="Path_1720" data-name="Path 1720" d="M0,0H2.5V1.25H0Z" transform="translate(0 7.071) rotate(-45)" fill="#a4afc1"/>
        <path id="Path_1721" data-name="Path 1721" d="M0,0H1.25V2.5H0Z" transform="translate(0 0.884) rotate(-45)" fill="#a4afc1"/>
        <path id="Path_1722" data-name="Path 1722" d="M28.375,10.177A1.875,1.875,0,1,1,30.25,8.3,1.877,1.877,0,0,1,28.375,10.177Zm0-2.5A.625.625,0,1,0,29,8.3.626.626,0,0,0,28.375,7.677Z" transform="translate(5.205 -5.504)" fill="#a4afc1"/>
      </g>
    </g>
    <g id="complaint" transform="translate(1171 722)">
      <path id="Path_3824" data-name="Path 3824" d="M50.944,296v9.739a1.047,1.047,0,0,1-1.047,1.047H31.047A1.047,1.047,0,0,1,30,305.739V296Zm0,0" transform="translate(-28.429 -280.501)" fill="#f7502f"/>
      <path id="Path_3825" data-name="Path 3825" d="M370,216h2.094v2.094H370Zm0,0" transform="translate(-350.626 -204.69)" fill="#3a5576"/>
      <path id="Path_3827" data-name="Path 3827" d="M140.472,359v4.189H130V359Zm0,0" transform="translate(-123.193 -340.202)" fill="#eafaff"/>
      <path id="Path_3828" data-name="Path 3828" d="M50,216h2.094v2.094H50Zm0,0" transform="translate(-47.382 -204.69)" fill="#3a5576"/>
      <path id="Path_3829" data-name="Path 3829" d="M180.524,390.047a.524.524,0,1,0-.524-.524A.524.524,0,0,0,180.524,390.047Zm0,0" transform="translate(-170.575 -368.632)"/>
      <path id="Path_3830" data-name="Path 3830" d="M22.515,8.692H19.9V.524A.524.524,0,0,0,19.373,0H4.712a.524.524,0,0,0-.524.524V8.692H1.571A1.573,1.573,0,0,0,0,10.263v4.189a1.573,1.573,0,0,0,1.047,1.481v9.306a1.573,1.573,0,0,0,1.571,1.571h18.85a1.573,1.573,0,0,0,1.571-1.571V15.932a1.573,1.573,0,0,0,1.047-1.481V10.263A1.573,1.573,0,0,0,22.515,8.692ZM19.9,11.834h1.047v1.047H19.9ZM5.236,1.047H18.85V12.881H5.236ZM3.142,12.881V11.834H4.189v1.047ZM21.468,25.762H2.618a.524.524,0,0,1-.524-.524V16.022h19.9v9.216A.524.524,0,0,1,21.468,25.762Zm1.571-11.31a.524.524,0,0,1-.524.524H1.571a.524.524,0,0,1-.524-.524V10.263a.524.524,0,0,1,.524-.524H4.189v1.047H2.618a.524.524,0,0,0-.524.524V13.4a.524.524,0,0,0,.524.524h18.85a.524.524,0,0,0,.524-.524V11.31a.524.524,0,0,0-.524-.524H19.9V9.739h2.618a.524.524,0,0,1,.524.524Zm0,0"/>
      <path id="Path_3831" data-name="Path 3831" d="M131,349H120.524a.524.524,0,0,0-.524.524v4.189a.524.524,0,0,0,.524.524H131a.524.524,0,0,0,.524-.524v-4.189A.524.524,0,0,0,131,349Zm-.524,4.189h-9.425v-3.142h9.425Zm0,0" transform="translate(-113.717 -330.726)"/>
      <path id="Path_3832" data-name="Path 3832" d="M220.524,390.047h2.094a.524.524,0,1,0,0-1.047h-2.094a.524.524,0,0,0,0,1.047Zm0,0" transform="translate(-208.481 -368.632)"/>
      <path id="Path_3833" data-name="Path 3833" d="M160.524,130.189a.524.524,0,0,0,.524-.524,2.618,2.618,0,1,1,5.236,0,.524.524,0,1,0,1.047,0,3.665,3.665,0,1,0-7.331,0A.524.524,0,0,0,160.524,130.189Zm0,0" transform="translate(-151.622 -119.403)"/>
      <path id="Path_3834" data-name="Path 3834" d="M160.524,68.094a.524.524,0,0,0,.524-.524V66.524a.524.524,0,0,0-1.047,0v1.047A.524.524,0,0,0,160.524,68.094Zm0,0" transform="translate(-151.622 -62.544)"/>
      <path id="Path_3835" data-name="Path 3835" d="M280.524,68.094a.524.524,0,0,0,.524-.524V66.524a.524.524,0,1,0-1.047,0v1.047A.524.524,0,0,0,280.524,68.094Zm0,0" transform="translate(-265.339 -62.544)"/>
    </g>
  </g>
</svg>
