<svg xmlns="http://www.w3.org/2000/svg" width="90.251" height="101.527" viewBox="0 0 90.251 101.527">
  <g id="pol_alert" transform="translate(-1103.668 -588.361)">
    <g id="Group_2230" data-name="Group 2230" transform="translate(1103.667 588.361)" opacity="0.3">
      <path id="Path_1818" data-name="Path 1818" d="M97.55,201.279a1.983,1.983,0,0,1,1.878-1.347h.289V171.178a25.183,25.183,0,0,1,50.366,0v28.755h.288a1.983,1.983,0,0,1,1.878,1.347l4.972,14.673a1.983,1.983,0,0,1-1.878,2.619H94.456a1.983,1.983,0,0,1-1.878-2.619Zm48.566-30.1a21.217,21.217,0,1,0-42.434,0v28.755h42.434V171.178Zm6.461,43.428L148.948,203.9h-48.1l-3.628,10.708Z" transform="translate(-79.773 -117.045)" fill="#fff"/>
      <path id="Path_1819" data-name="Path 1819" d="M247.983,15.863A1.983,1.983,0,0,1,246,13.88V1.983a1.983,1.983,0,0,1,3.966,0v11.9A1.983,1.983,0,0,1,247.983,15.863Z" transform="translate(-202.857 0)" fill="#fff"/>
      <path id="Path_1820" data-name="Path 1820" d="M247.983,102.928a1.98,1.98,0,1,1,1.4-.579A2,2,0,0,1,247.983,102.928Z" transform="translate(-202.857 -79.34)" fill="#fff"/>
      <path id="Path_1821" data-name="Path 1821" d="M39.587,269.642a1.983,1.983,0,0,1,1.983-1.983h9.105a1.983,1.983,0,1,1,0,3.966H41.57A1.983,1.983,0,0,1,39.587,269.642Z" transform="translate(35.381 -214.584)" fill="#fff"/>
      <path id="Path_1823" data-name="Path 1823" d="M159.693,59.323a1.983,1.983,0,1,1-3.664-1.518l2.688-6.488a1.983,1.983,0,0,1,3.664,1.518Z" transform="translate(-97.553 -40.159)" fill="#fff"/>
      <path id="Path_1824" data-name="Path 1824" d="M30.415,184.194a1.983,1.983,0,0,1-.76-3.816l6.488-2.687a1.983,1.983,0,1,1,1.518,3.664l-6.488,2.688A1.987,1.987,0,0,1,30.415,184.194Z" transform="translate(51.366 -142.335)" fill="#fff"/>
      <path id="Path_1825" data-name="Path 1825" d="M412.645,267.66h9.105a1.983,1.983,0,0,1,0,3.966h-9.105a1.983,1.983,0,1,1,0-3.966Z" transform="translate(-409.276 -214.584)" fill="#fff"/>
      <path id="Path_1827" data-name="Path 1827" d="M399.213,90.7a1.977,1.977,0,0,1-1.4-.581l-9.757-9.757a1.983,1.983,0,1,1,2.8-2.8l9.757,9.757a1.983,1.983,0,0,1-1.4,3.385Z" transform="translate(-382.141 -61.715)" fill="#fff"/>
      <path id="Path_1828" data-name="Path 1828" d="M58.706,90.125a1.983,1.983,0,0,1-2.8-2.8l9.757-9.756a1.983,1.983,0,0,1,2.8,2.8Z" transform="translate(15.875 -61.718)" fill="#fff"/>
      <path id="Path_1829" data-name="Path 1829" d="M327.992,60.4a1.981,1.981,0,0,1-2.591-1.073l-2.688-6.488a1.983,1.983,0,0,1,3.664-1.518l2.688,6.488A1.983,1.983,0,0,1,327.992,60.4Z" transform="translate(-297.291 -40.16)" fill="#fff"/>
      <path id="Path_1830" data-name="Path 1830" d="M433.585,177.69l6.488,2.688a1.983,1.983,0,1,1-1.518,3.664l-6.488-2.688a1.983,1.983,0,0,1,1.518-3.664Z" transform="translate(-430.842 -142.333)" fill="#fff"/>
    </g>
    <g id="Rectangle_1399" data-name="Rectangle 1399" transform="translate(1133.855 632.233)" fill="none" stroke="#fff" stroke-width="2.5" opacity="0.31">
      <path d="M10,0H20.839a10,10,0,0,1,10,10V32.18a0,0,0,0,1,0,0H0a0,0,0,0,1,0,0V10A10,10,0,0,1,10,0Z" stroke="none"/>
      <path d="M10,1.25H20.839A8.75,8.75,0,0,1,29.589,10V29.68a1.25,1.25,0,0,1-1.25,1.25H2.5a1.25,1.25,0,0,1-1.25-1.25V10A8.75,8.75,0,0,1,10,1.25Z" fill="none"/>
    </g>
  </g>
</svg>
